<svg xmlns="http://www.w3.org/2000/svg" viewBox="0 0 1280 420" width="1280" height="420">
  <defs>
    <linearGradient id="bg3" x1="0" y1="0" x2="0" y2="1">
      <stop offset="0%" stop-color="#1a1a2e"/>
      <stop offset="100%" stop-color="#161629"/>
    </linearGradient>
  </defs>
  <rect width="1280" height="420" fill="url(#bg3)"/>
  <rect x="20" y="20" width="1240" height="380" fill="none" stroke="#d4af37" stroke-width="2" rx="6"/>

  <text x="640" y="70" text-anchor="middle" font-family="Georgia, serif" font-size="30" font-weight="700" fill="#d4af37" letter-spacing="4">THE ROAD TO THE BAR</text>
  <text x="640" y="100" text-anchor="middle" font-family="Georgia, serif" font-size="15" font-style="italic" fill="#c9b037">From Cornell notes to admission — one disciplined ascent, by 2030</text>

  <line x1="120" y1="250" x2="1160" y2="250" stroke="#d4af37" stroke-width="3"/>

  <g font-family="Inter, 'Segoe UI', sans-serif">
    <circle cx="200" cy="250" r="10" fill="#d4af37"/>
    <rect x="148" y="142" width="104" height="86" rx="6" fill="#1f1f38" stroke="#d4af37" stroke-width="1.5"/>
    <text x="200" y="168" text-anchor="middle" font-size="15" font-weight="700" fill="#d4af37">2026</text>
    <text x="200" y="190" text-anchor="middle" font-size="11" fill="#f0e6d3">Foundations</text>
    <text x="200" y="208" text-anchor="middle" font-size="10" fill="#a8a4b8">4 subjects · decks</text>
    <line x1="200" y1="228" x2="200" y2="250" stroke="#d4af37" stroke-width="1.5"/>

    <circle cx="440" cy="250" r="10" fill="#d4af37"/>
    <rect x="388" y="142" width="104" height="86" rx="6" fill="#1f1f38" stroke="#d4af37" stroke-width="1.5"/>
    <text x="440" y="168" text-anchor="middle" font-size="15" font-weight="700" fill="#d4af37">2027</text>
    <text x="440" y="190" text-anchor="middle" font-size="11" fill="#f0e6d3">Build-out</text>
    <text x="440" y="208" text-anchor="middle" font-size="10" fill="#a8a4b8">Evid · Con · Crim</text>
    <line x1="440" y1="228" x2="440" y2="250" stroke="#d4af37" stroke-width="1.5"/>

    <circle cx="680" cy="250" r="10" fill="#d4af37"/>
    <rect x="628" y="142" width="104" height="86" rx="6" fill="#1f1f38" stroke="#d4af37" stroke-width="1.5"/>
    <text x="680" y="168" text-anchor="middle" font-size="15" font-weight="700" fill="#d4af37">2028</text>
    <text x="680" y="190" text-anchor="middle" font-size="11" fill="#f0e6d3">Full coverage</text>
    <text x="680" y="208" text-anchor="middle" font-size="10" fill="#a8a4b8">+ Biz · Family</text>
    <line x1="680" y1="228" x2="680" y2="250" stroke="#d4af37" stroke-width="1.5"/>

    <circle cx="920" cy="250" r="10" fill="#d4af37"/>
    <rect x="868" y="142" width="104" height="86" rx="6" fill="#1f1f38" stroke="#d4af37" stroke-width="1.5"/>
    <text x="920" y="168" text-anchor="middle" font-size="15" font-weight="700" fill="#d4af37">2029</text>
    <text x="920" y="190" text-anchor="middle" font-size="11" fill="#f0e6d3">MPRE + drills</text>
    <text x="920" y="208" text-anchor="middle" font-size="10" fill="#a8a4b8">timed MBE/MEE</text>
    <line x1="920" y1="228" x2="920" y2="250" stroke="#d4af37" stroke-width="1.5"/>

    <circle cx="1100" cy="250" r="12" fill="#d4af37"/>
    <rect x="1036" y="142" width="128" height="86" rx="6" fill="#2a2348" stroke="#d4af37" stroke-width="2"/>
    <text x="1100" y="168" text-anchor="middle" font-size="15" font-weight="700" fill="#d4af37">2030</text>
    <text x="1100" y="190" text-anchor="middle" font-size="11" fill="#f0e6d3">ADMISSION</text>
    <text x="1100" y="208" text-anchor="middle" font-size="10" fill="#a8a4b8">UBE · CA · NY</text>
    <line x1="1100" y1="228" x2="1100" y2="250" stroke="#d4af37" stroke-width="1.5"/>
  </g>

  <g font-family="Georgia, serif">
    <text x="640" y="320" text-anchor="middle" font-size="14" fill="#c9b037">JUSTICE turns my law notes into source-grounded MCQ decks — 4 card types, 4 Bloom tiers</text>
    <text x="640" y="345" text-anchor="middle" font-size="13" font-style="italic" fill="#a8a4b8">Same engine that teaches me five languages now teaches me the law</text>
  </g>
</svg>
